<svg xmlns="http://www.w3.org/2000/svg" fill="none" viewBox="0 0 88 24">
    <g fill="#fff" clip-path="url(#a)">
        <path d="M8.7.2a9.4 9.4 0 0 0-7.5 5.2C.3 7.4.1 8.6.1 11.7c0 2.4 0 3 .4 4.1.8 3.2 2.6 5.5 5.3 6.9a20.1 20.1 0 0 0 14.8-.2l1.2-.5V10.9H11.2v2.9h5.6v6.6l-.8.3c-1.2.5-4.2.6-5.6.2-2-.5-3.6-2.1-4.3-4.4-1-3.1-.7-8.1.5-10.7a5.3 5.3 0 0 1 2.6-2.5c1.3-.5 3.8-.5 4.8 0s1.5 1.3 1.8 2.4l.2.8h5.5v-.8C21 3 19 1.2 15.8.4 14.4.1 10.2 0 8.7.2Zm20.2 12v11.6h4.9V.5H29v11.7Zm12.5 0v11.6h4.9v-10h2.2c2.6.1 3.5.4 4.4 1.3.7.7 1 1.6 2.1 5.7l.9 3h2.5l2.5-.1c0-.5-2.3-8.5-2.6-9-.7-1.3-2-2.1-3.8-2.5-.5-.1-.5-.2.6-.5 2.2-.6 3.7-1.6 4.3-3.1a6 6 0 0 0 .3-2c0-1.3 0-1.6-.4-2.4-.8-1.6-2.1-2.6-4.5-3.2a26 26 0 0 0-7.3-.4L41.4.5v11.7Zm10.9-8.6c2.4.8 3.2 3.9 1.4 5.8-1 1-2 1.4-4.8 1.5h-2.6V3.4H49c1.8 0 2.7 0 3.4.2Zm16.1 8.2-4.6 11.7c-.1.3 0 .3 2.3.3h2.4l1.2-3.2 1.2-3.1h9.9l1.1 3.1 1.2 3.1 2.5.1H88L83.4 12 78.7.6H76l-3-.1-4.6 11.3ZM78 9.7l1.7 4.7h-7.5l3.7-10c.1-.1 0-.5 2 5.3Z"/>
    </g>
    <defs>
        <clipPath id="a">
            <path fill="#fff" d="M0 0h88v24H0z"/>
        </clipPath>
    </defs>
</svg>