
<svg xmlns="http://www.w3.org/2000/svg" fill="none" viewBox="0 0 24 24">
    <symbol id="phone">
        <path d="M19.95 21C20.25 21 20.5 20.9 20.7 20.7C20.9 20.5 21 20.25 21 19.95V15.9C21 15.6667 20.925 15.4623 20.775 15.287C20.625 15.1117 20.4333 14.9993 20.2 14.95L16.75 14.25C16.5167 14.2167 16.279 14.2377 16.037 14.313C15.795 14.3883 15.5993 14.5007 15.45 14.65L13.1 17C11.8333 16.2333 10.675 15.325 9.625 14.275C8.575 13.225 7.7 12.1 7 10.9L9.4 8.45C9.55 8.3 9.646 8.129 9.688 7.937C9.73 7.745 9.734 7.53267 9.7 7.3L9.05 3.8C9.01667 3.56667 8.90833 3.375 8.725 3.225C8.54167 3.075 8.33333 3 8.1 3H4.05C3.75 3 3.5 3.1 3.3 3.3C3.1 3.5 3 3.75 3 4.05C3 6.2 3.47933 8.296 4.438 10.338C5.39667 12.38 6.66333 14.1883 8.238 15.763C9.81267 17.3377 11.621 18.6043 13.663 19.563C15.705 20.5217 17.8007 21.0007 19.95 21Z" fill="#444444"/>
    </symbol>
    <symbol id="mail">
        <path d="M4 20C3.45 20 2.979 19.804 2.587 19.412C2.195 19.02 1.99934 18.5493 2 18V6C2 5.45 2.196 4.979 2.588 4.587C2.98 4.195 3.45067 3.99934 4 4H20C20.55 4 21.021 4.196 21.413 4.588C21.805 4.98 22.0007 5.45067 22 6V18C22 18.55 21.804 19.021 21.412 19.413C21.02 19.805 20.5493 20.0007 20 20H4ZM12 12.825C12.0833 12.825 12.171 12.8123 12.263 12.787C12.355 12.7617 12.4423 12.7243 12.525 12.675L19.6 8.25C19.7333 8.16667 19.8333 8.06234 19.9 7.937C19.9667 7.81167 20 7.67434 20 7.525C20 7.19167 19.8583 6.94167 19.575 6.775C19.2917 6.60834 19 6.61667 18.7 6.8L12 11L5.3 6.8C5 6.61667 4.70834 6.61267 4.425 6.788C4.14167 6.96334 4 7.209 4 7.525C4 7.69167 4.03333 7.83767 4.1 7.963C4.16667 8.08834 4.26667 8.184 4.4 8.25L11.475 12.675C11.5583 12.725 11.646 12.7627 11.738 12.788C11.83 12.8133 11.9173 12.8257 12 12.825Z" fill="#444444"/>
    </symbol>
    <symbol id="address">
        <path d="M12.75 21.7497C12.6498 21.7498 12.5507 21.7297 12.4584 21.6908C12.3661 21.6519 12.2825 21.5949 12.2126 21.5231C12.1427 21.4514 12.0879 21.3664 12.0513 21.2731C12.0148 21.1798 11.9974 21.0802 12 20.98V12.3808C12 12.2814 11.9605 12.186 11.8902 12.1157C11.8198 12.0453 11.7245 12.0058 11.625 12.0058H3.01923C2.86148 12.0077 2.70702 11.9607 2.57703 11.8713C2.44703 11.782 2.34787 11.6546 2.29313 11.5066C2.2308 11.3302 2.23668 11.1368 2.30962 10.9645C2.38256 10.7921 2.51729 10.6533 2.68735 10.5752L20.6874 2.31817C20.8264 2.25445 20.9816 2.23477 21.1322 2.26179C21.2828 2.2888 21.4215 2.36121 21.5297 2.4693C21.638 2.57738 21.7106 2.71599 21.7378 2.86651C21.765 3.01704 21.7456 3.17229 21.682 3.31145L13.432 21.3114C13.3723 21.4422 13.2763 21.553 13.1553 21.6307C13.0344 21.7084 12.8937 21.7497 12.75 21.7497Z" fill="#444444"/>
    </symbol>
</svg>