<svg xmlns="http://www.w3.org/2000/svg" fill="none" viewBox="0 0 40 40">
    <symbol id="telegram">
        <circle cx="20" cy="20" r="12" fill="#FAFAFA"/>
        <path fill="#363636" d="M20 3.33A16.67 16.67 0 1 0 20 36.68 16.67 16.67 0 0 0 20 3.33Zm7.73 11.34c-.25 2.63-1.33 9.03-1.88 11.98-.23 1.25-.7 1.67-1.13 1.72-.97.08-1.7-.64-2.64-1.25-1.46-.97-2.3-1.57-3.71-2.5-1.65-1.09-.59-1.69.36-2.65.25-.25 4.52-4.14 4.6-4.49a.33.33 0 0 0-.08-.3c-.1-.08-.23-.05-.35-.03-.15.03-2.48 1.58-7.03 4.65-.67.45-1.27.68-1.8.67-.6-.02-1.74-.34-2.59-.62-1.05-.33-1.86-.52-1.8-1.1.04-.3.45-.6 1.24-.92 4.86-2.11 8.1-3.51 9.71-4.18 4.64-1.93 5.59-2.27 6.22-2.27.13 0 .45.04.65.2.17.14.22.32.23.45-.01.1.02.4 0 .64Z"/>
    </symbol>
    <symbol id="instagram">
        <circle cx="20" cy="20" r="12" fill="#FAFAFA"/>
        <path fill="#363636" d="M25.2 20a5.2 5.2 0 1 1-10.32-.87h-1.83v6.94c0 .48.4.87.88.87h12.14a.87.87 0 0 0 .87-.87v-6.94h-1.82c.06.28.09.57.09.87ZM20 23.47a3.47 3.47 0 1 0 0-6.94 3.47 3.47 0 0 0 0 6.94Zm4.17-7.12h2.08a.52.52 0 0 0 .52-.52v-2.08a.52.52 0 0 0-.52-.52h-2.08a.52.52 0 0 0-.53.52v2.08c0 .29.24.52.53.52ZM20 3.33a16.67 16.67 0 1 0 0 33.34 16.67 16.67 0 0 0 0-33.34Zm8.68 23.42c0 1.06-.87 1.93-1.93 1.93h-13.5a1.93 1.93 0 0 1-1.93-1.93v-13.5c0-1.06.87-1.93 1.93-1.93h13.5c1.06 0 1.93.87 1.93 1.93v13.5Z"/>
    </symbol>
    <symbol id="youtube">
        <circle cx="20" cy="20" r="12" fill="#FAFAFA"/>
        <path fill="#363636" d="m22.78 19.71-3.9-1.82c-.34-.16-.62.02-.62.4v3.42c0 .38.28.56.62.4l3.9-1.82c.34-.16.34-.42 0-.58ZM20 3.33a16.67 16.67 0 1 0 0 33.34 16.67 16.67 0 0 0 0-33.34Zm0 23.44c-8.53 0-8.68-.77-8.68-6.77s.15-6.77 8.68-6.77 8.68.77 8.68 6.77-.15 6.77-8.68 6.77Z"/>
    </symbol>
</svg>