<svg xmlns="http://www.w3.org/2000/svg" fill="none" viewBox="0 0 50 50"><g fill="#fff" clip-path="url(#a)"><path d="M14.5 14.4c-3 2.8-5.5 5.6-5.7 6-.2.6.4 3.5 2.3 10.7 2.5 9.2 2.7 9.8 3.8 10.4.6.3 1.2.6 1.5.5.3 0-.6-3.9-2.4-10.4l-2.7-10.3L22.8 18l11.6-3 2.8 10.2c1.8 6.6 3 10.3 3.2 10.2.3 0 .7-.6 1-1.2.7-1 .6-1.7-2-11-2.4-8.9-2.7-9.9-3.6-10.4-1.3-.7-14.6-4-15.4-3.8-.4.1-3 2.5-6 5.3Z"/><path d="m15 25 .6 2 9-2.4 9-2.5-.5-1.9-.6-2-9 2.5-9 2.5.6 1.9ZM24.9 30.7l.8 3.2-1.6.6-1.7.6 3 2 3 1.9 1.7-3.2 1.6-3.2-1.7.3-1.7.3-.9-3.2-.8-3.2-1.3.4-1.3.3.9 3.2Z"/></g><defs><clipPath id="a"><path fill="#fff" d="M0 10.5 38.8.1 49 38.7 10.5 49z"/></clipPath></defs></svg>