<svg xmlns="http://www.w3.org/2000/svg" fill="none" viewBox="0 0 37 37"><g fill="#fff" clip-path="url(#a)"><path d="M13.1 6.2c-.7.4-1 .8-4 8.8s-3.2 8.5-2.9 9.2c.4.8.8 1 8.8 4 8 3.2 8.5 3.3 9.2 3 .8-.4 1-.8 4-8.8 3.2-8 3.3-8.5 3-9.3-.4-.7-.8-1-8.8-4S13.9 5.9 13 6.2ZM25 13.7c.4.8.2 1.2-1.9 6.7-2.8 7.3-2.4 7-7 5.3-4.6-1.8-4.5-1.4-1.7-8.7 2.8-7.3 2.5-7 7-5.3 2.9 1 3.3 1.3 3.6 2Z"/><path d="m15 20.3-1 2.6 2.7 1 2.6 1 1-2.6 1-2.6-2.6-1-2.6-1-1 2.6Z"/></g><defs><clipPath id="a"><path fill="#fff" d="m10.6.6 26.2 10-10 26.2-26.2-10z"/></clipPath></defs></svg>