<svg xmlns="http://www.w3.org/2000/svg" fill="none" viewBox="0 0 24 24"><g clip-path="url(#a)"><path fill="#fff" d="M9 5.8a46 46 0 0 0-4.3 2.6c-.2.3.1 1 .6 1 .4 0 .4.3-.3 4-.7 3.4-.7 3.8-.4 4.3.4.4.7.5 6 1.5 5.5 1 5.8 1 6.3.8.4-.4.5-.7 1.2-4.2l.7-3.8h.6c1 .1 1.1-.7.4-1.4-.5-.6-.6-.7-.3-2.2l.2-1.6-.9-.2c-.8-.1-.9 0-1.1.6l-.2.6-1.8-2a12 12 0 0 0-2-2.3c-.2 0-2.3 1-4.6 2.3Zm4 4c.1.2.4.5.7.6.4 0 .5.3.4.7 0 .4-.2.5-.7.5-.4 0-.6 0-.7.3 0 .6.3.9 1.2 1.3 1 .4 1.7 1.3 1.6 2.2-.1.6-.2.6-.8.5-.5 0-.6-.2-.6-.5.2-1-.6-1.3-1.8-.9-.8.2-.8.2-1.4-.3-.3-.2-1-.5-1.6-.6-.9-.2-1-.2-.8-.9.1-.6.2-.6 1.2-.4H11c.5-.4.6-1 0-1.1-.4-.1-.8-.8-.5-1.2l.7-.2c.3 0 .6 0 .7-.2.2-.4 1-.2 1.2.2Zm1.8 8.3c.2 1-.6 1.6-1.1.7-.2-.3-.1-.5.1-.9.5-.6.8-.6 1 .2Z"/></g><defs><clipPath id="a"><path fill="#fff" d="M4 .4 23.8 4 20 23.7.4 20z"/></clipPath></defs></svg>