<svg xmlns="http://www.w3.org/2000/svg" fill="none" viewBox="0 0 27 27"><g fill="#fff" clip-path="url(#a)"><path d="M5.8 8.3 7 11.7 8.2 15l-.4 1.2c-1 2.5.5 5 3.2 5.2 1.4.2 2.4-.2 3.3-1.2 1.8-2 1.3-4.9-1.2-6-1.4-.8-1.8-1.6-1-2 .4-.2.5-.4.3-.8-.1-.4-.3-.5-.7-.4-.5.2-.7.1-.9-.4-.2-.5-.1-.6.3-.9.5-.2.5-.4.4-.8-.2-.4-.4-.5-.8-.3-.5 0-.6 0-1-.7l-.4-.9-1.7.6c-1 .3-1.7.7-1.8.8Zm4.1 3.6c1.2 3.1 1.3 3.4 1 3.7-.7.5-1 1.6-.5 2.6.3.8.5 1 1.3 1.3l1 .4-.8.1c-.4.1-1.2 0-1.7-.2-.7-.4-.9-.6-1.2-1.5-.4-1-.4-1 .2-2.1l.5-1.2-1.2-3-1.1-3 .6-.3.6-.2 1.3 3.4ZM14.6 6c-.8 2-.7 2.4.7 2l.9-.3 2 5.2 2.1 5.2.6-.2.5-.2-2-5.2-2-5.3.9-.4c1.2-.5 1-1-.9-1.9-.8-.4-1.6-.6-1.8-.5-.2 0-.7.8-1 1.6Z"/></g><defs><clipPath id="a"><path fill="#fff" d="M.3 7.4 19 .2l7.2 18.6-18.6 7.3z"/></clipPath></defs></svg>