<svg xmlns="http://www.w3.org/2000/svg" fill="none" viewBox="0 0 20 20"><g clip-path="url(#a)"><path fill="#fff" d="M11.2 4.7C9.4 4.5 7.9 5 6.6 6c-.7.6-.9.9-1.4 1.9-.5 1-.5 1.3-.5 2.2 0 4.9 5.5 7.4 9.2 4.3.7-.5.9-.8 1.3-1.8.5-1 .6-1.4.6-2.3a6 6 0 0 0-.9-3.1 5.8 5.8 0 0 0-3.7-2.5ZM13.5 7c.2.7 0 1-1 1.3a3 3 0 0 0-.9.5l-.5-.1-.5-.3.3-.5c.7-1 1.1-1.4 1.5-1.4.6-.1.9 0 1 .5ZM11 10v.7c-.2.4-.9.6-1.3.5a1 1 0 0 1-.4-.6v-.7l.5-.4h.7c.2 0 .4.3.5.5Zm-3.2-.3c.4.2.5.4.5.8v.4c-.3.1-2-.1-2.3-.3-.4-.1-.7-1-.6-1.3l.5-.4c.3-.2.5-.2.9.1l1 .7Zm4.3 3c.2.6.4 1.2.3 1.4 0 .5-.7.9-1.2.7-.5-.3-.7-.8-.5-1.5v-.9c0-.3 0-.4.4-.5l.5-.2.5 1Z"/></g><defs><clipPath id="a"><path fill="#fff" d="m6.8 1 12.7 5.8-5.9 12.7L1 13.6z"/></clipPath></defs></svg>